<mxfile host="app.diagrams.net" modified="2023-06-12T11:02:20.645Z" agent="Mozilla/5.0 (Windows NT 10.0; Win64; x64; rv:109.0) Gecko/20100101 Firefox/113.0" etag="HPOPCAkRDBucRtZTmk7d" version="21.2.1" type="device">
  <diagram name="Страница 1" id="6pJea0h39oAstxqiXZ55">
    <mxGraphModel dx="1195" dy="628" grid="1" gridSize="10" guides="1" tooltips="1" connect="1" arrows="1" fold="1" page="1" pageScale="1" pageWidth="827" pageHeight="1169" math="0" shadow="0">
      <root>
        <mxCell id="0" />
        <mxCell id="1" parent="0" />
        <mxCell id="s12bMk3e2mgrODgUQQMB-1" value="User" style="shape=umlActor;verticalLabelPosition=bottom;verticalAlign=top;html=1;outlineConnect=0;" vertex="1" parent="1">
          <mxGeometry x="70" y="210" width="30" height="60" as="geometry" />
        </mxCell>
        <mxCell id="s12bMk3e2mgrODgUQQMB-2" value="Admin" style="shape=umlActor;verticalLabelPosition=bottom;verticalAlign=top;html=1;outlineConnect=0;" vertex="1" parent="1">
          <mxGeometry x="60" y="530" width="30" height="60" as="geometry" />
        </mxCell>
        <mxCell id="s12bMk3e2mgrODgUQQMB-3" value="" style="swimlane;startSize=0;" vertex="1" parent="1">
          <mxGeometry x="190" y="100" width="490" height="590" as="geometry" />
        </mxCell>
        <mxCell id="s12bMk3e2mgrODgUQQMB-4" value="Check bookings" style="ellipse;whiteSpace=wrap;html=1;" vertex="1" parent="s12bMk3e2mgrODgUQQMB-3">
          <mxGeometry x="60" y="80" width="120" height="40" as="geometry" />
        </mxCell>
        <mxCell id="s12bMk3e2mgrODgUQQMB-5" value="Book room" style="ellipse;whiteSpace=wrap;html=1;" vertex="1" parent="s12bMk3e2mgrODgUQQMB-3">
          <mxGeometry x="60" y="150" width="120" height="40" as="geometry" />
        </mxCell>
        <mxCell id="s12bMk3e2mgrODgUQQMB-6" value="Cancel booking" style="ellipse;whiteSpace=wrap;html=1;" vertex="1" parent="s12bMk3e2mgrODgUQQMB-3">
          <mxGeometry x="60" y="220" width="120" height="40" as="geometry" />
        </mxCell>
        <mxCell id="s12bMk3e2mgrODgUQQMB-8" value="Authorization" style="ellipse;whiteSpace=wrap;html=1;" vertex="1" parent="s12bMk3e2mgrODgUQQMB-3">
          <mxGeometry x="290" y="90" width="120" height="40" as="geometry" />
        </mxCell>
        <mxCell id="s12bMk3e2mgrODgUQQMB-10" value="Notify about booking" style="ellipse;whiteSpace=wrap;html=1;" vertex="1" parent="s12bMk3e2mgrODgUQQMB-3">
          <mxGeometry x="310" y="220" width="140" height="40" as="geometry" />
        </mxCell>
        <mxCell id="s12bMk3e2mgrODgUQQMB-11" value="See all bookings" style="ellipse;whiteSpace=wrap;html=1;" vertex="1" parent="s12bMk3e2mgrODgUQQMB-3">
          <mxGeometry x="60" y="510" width="120" height="40" as="geometry" />
        </mxCell>
        <mxCell id="s12bMk3e2mgrODgUQQMB-14" value="Ask to prolong booking" style="ellipse;whiteSpace=wrap;html=1;" vertex="1" parent="s12bMk3e2mgrODgUQQMB-3">
          <mxGeometry x="300" y="310" width="140" height="40" as="geometry" />
        </mxCell>
        <mxCell id="s12bMk3e2mgrODgUQQMB-15" value="Prolong booking" style="ellipse;whiteSpace=wrap;html=1;" vertex="1" parent="s12bMk3e2mgrODgUQQMB-3">
          <mxGeometry x="60" y="310" width="120" height="40" as="geometry" />
        </mxCell>
        <mxCell id="s12bMk3e2mgrODgUQQMB-21" value="" style="endArrow=none;dashed=1;html=1;rounded=0;startArrow=classic;startFill=1;entryX=1;entryY=0.5;entryDx=0;entryDy=0;exitX=0;exitY=0.5;exitDx=0;exitDy=0;" edge="1" parent="s12bMk3e2mgrODgUQQMB-3" source="s12bMk3e2mgrODgUQQMB-8" target="s12bMk3e2mgrODgUQQMB-4">
          <mxGeometry width="50" height="50" relative="1" as="geometry">
            <mxPoint x="220" y="210" as="sourcePoint" />
            <mxPoint x="270" y="160" as="targetPoint" />
          </mxGeometry>
        </mxCell>
        <mxCell id="s12bMk3e2mgrODgUQQMB-22" value="&amp;lt;&amp;lt;includes&amp;gt;&amp;gt;" style="edgeLabel;html=1;align=center;verticalAlign=middle;resizable=0;points=[];" vertex="1" connectable="0" parent="s12bMk3e2mgrODgUQQMB-21">
          <mxGeometry x="-0.2803" y="2" relative="1" as="geometry">
            <mxPoint x="-20" y="-8" as="offset" />
          </mxGeometry>
        </mxCell>
        <mxCell id="s12bMk3e2mgrODgUQQMB-27" value="" style="endArrow=none;html=1;rounded=0;exitX=1;exitY=0.5;exitDx=0;exitDy=0;" edge="1" parent="s12bMk3e2mgrODgUQQMB-3" source="s12bMk3e2mgrODgUQQMB-14">
          <mxGeometry width="50" height="50" relative="1" as="geometry">
            <mxPoint x="460" y="370" as="sourcePoint" />
            <mxPoint x="550" y="240" as="targetPoint" />
          </mxGeometry>
        </mxCell>
        <mxCell id="s12bMk3e2mgrODgUQQMB-28" value="" style="endArrow=none;dashed=1;html=1;rounded=0;startArrow=classic;startFill=1;entryX=0;entryY=0.5;entryDx=0;entryDy=0;exitX=1;exitY=0.5;exitDx=0;exitDy=0;" edge="1" parent="s12bMk3e2mgrODgUQQMB-3" source="s12bMk3e2mgrODgUQQMB-15" target="s12bMk3e2mgrODgUQQMB-14">
          <mxGeometry width="50" height="50" relative="1" as="geometry">
            <mxPoint x="280" y="100" as="sourcePoint" />
            <mxPoint x="170" y="90" as="targetPoint" />
          </mxGeometry>
        </mxCell>
        <mxCell id="s12bMk3e2mgrODgUQQMB-29" value="&amp;lt;&amp;lt;extends&amp;gt;&amp;gt;" style="edgeLabel;html=1;align=center;verticalAlign=middle;resizable=0;points=[];" vertex="1" connectable="0" parent="s12bMk3e2mgrODgUQQMB-28">
          <mxGeometry x="-0.2803" y="2" relative="1" as="geometry">
            <mxPoint x="23" y="-8" as="offset" />
          </mxGeometry>
        </mxCell>
        <mxCell id="s12bMk3e2mgrODgUQQMB-33" value="" style="endArrow=none;dashed=1;html=1;rounded=0;startArrow=classic;startFill=1;entryX=0;entryY=0.5;entryDx=0;entryDy=0;exitX=1;exitY=0.5;exitDx=0;exitDy=0;" edge="1" parent="s12bMk3e2mgrODgUQQMB-3" source="s12bMk3e2mgrODgUQQMB-6" target="s12bMk3e2mgrODgUQQMB-10">
          <mxGeometry width="50" height="50" relative="1" as="geometry">
            <mxPoint x="200" y="370" as="sourcePoint" />
            <mxPoint x="330" y="370" as="targetPoint" />
          </mxGeometry>
        </mxCell>
        <mxCell id="s12bMk3e2mgrODgUQQMB-34" value="&amp;lt;&amp;lt;extends&amp;gt;&amp;gt;" style="edgeLabel;html=1;align=center;verticalAlign=middle;resizable=0;points=[];" vertex="1" connectable="0" parent="s12bMk3e2mgrODgUQQMB-33">
          <mxGeometry x="-0.2803" y="2" relative="1" as="geometry">
            <mxPoint x="23" y="-8" as="offset" />
          </mxGeometry>
        </mxCell>
        <mxCell id="s12bMk3e2mgrODgUQQMB-35" value="Notify user about changes" style="ellipse;whiteSpace=wrap;html=1;" vertex="1" parent="s12bMk3e2mgrODgUQQMB-3">
          <mxGeometry x="300" y="432.5" width="130" height="55" as="geometry" />
        </mxCell>
        <mxCell id="s12bMk3e2mgrODgUQQMB-38" value="" style="endArrow=none;html=1;rounded=0;" edge="1" parent="s12bMk3e2mgrODgUQQMB-3">
          <mxGeometry width="50" height="50" relative="1" as="geometry">
            <mxPoint x="430" y="460" as="sourcePoint" />
            <mxPoint x="550" y="240" as="targetPoint" />
          </mxGeometry>
        </mxCell>
        <mxCell id="s12bMk3e2mgrODgUQQMB-41" value="University Booking Bot" style="text;html=1;strokeColor=none;fillColor=none;align=center;verticalAlign=middle;whiteSpace=wrap;rounded=0;" vertex="1" parent="s12bMk3e2mgrODgUQQMB-3">
          <mxGeometry x="30" y="10" width="140" height="30" as="geometry" />
        </mxCell>
        <mxCell id="s12bMk3e2mgrODgUQQMB-12" value="Bot" style="shape=umlActor;verticalLabelPosition=bottom;verticalAlign=top;html=1;outlineConnect=0;" vertex="1" parent="1">
          <mxGeometry x="750" y="320" width="30" height="60" as="geometry" />
        </mxCell>
        <mxCell id="s12bMk3e2mgrODgUQQMB-13" value="Edit any booking" style="ellipse;whiteSpace=wrap;html=1;" vertex="1" parent="1">
          <mxGeometry x="250" y="540" width="120" height="40" as="geometry" />
        </mxCell>
        <mxCell id="s12bMk3e2mgrODgUQQMB-17" value="" style="endArrow=none;html=1;rounded=0;entryX=0;entryY=0.5;entryDx=0;entryDy=0;exitX=1;exitY=0.3333333333333333;exitDx=0;exitDy=0;exitPerimeter=0;" edge="1" parent="1" source="s12bMk3e2mgrODgUQQMB-1" target="s12bMk3e2mgrODgUQQMB-4">
          <mxGeometry width="50" height="50" relative="1" as="geometry">
            <mxPoint x="50" y="100" as="sourcePoint" />
            <mxPoint x="100" y="50" as="targetPoint" />
          </mxGeometry>
        </mxCell>
        <mxCell id="s12bMk3e2mgrODgUQQMB-18" value="" style="endArrow=none;html=1;rounded=0;entryX=0;entryY=0.5;entryDx=0;entryDy=0;" edge="1" parent="1" target="s12bMk3e2mgrODgUQQMB-5">
          <mxGeometry width="50" height="50" relative="1" as="geometry">
            <mxPoint x="100" y="230" as="sourcePoint" />
            <mxPoint x="200" y="270" as="targetPoint" />
          </mxGeometry>
        </mxCell>
        <mxCell id="s12bMk3e2mgrODgUQQMB-19" value="" style="endArrow=none;html=1;rounded=0;entryX=0;entryY=0.5;entryDx=0;entryDy=0;" edge="1" parent="1" target="s12bMk3e2mgrODgUQQMB-6">
          <mxGeometry width="50" height="50" relative="1" as="geometry">
            <mxPoint x="100" y="230" as="sourcePoint" />
            <mxPoint x="160" y="300" as="targetPoint" />
          </mxGeometry>
        </mxCell>
        <mxCell id="s12bMk3e2mgrODgUQQMB-20" value="" style="endArrow=none;html=1;rounded=0;exitX=1;exitY=0.5;exitDx=0;exitDy=0;entryX=0;entryY=0.3333333333333333;entryDx=0;entryDy=0;entryPerimeter=0;" edge="1" parent="1" source="s12bMk3e2mgrODgUQQMB-10" target="s12bMk3e2mgrODgUQQMB-12">
          <mxGeometry width="50" height="50" relative="1" as="geometry">
            <mxPoint x="720" y="250" as="sourcePoint" />
            <mxPoint x="770" y="200" as="targetPoint" />
          </mxGeometry>
        </mxCell>
        <mxCell id="s12bMk3e2mgrODgUQQMB-23" value="" style="endArrow=none;dashed=1;html=1;rounded=0;startArrow=classic;startFill=1;entryX=1;entryY=0.5;entryDx=0;entryDy=0;exitX=0;exitY=0.5;exitDx=0;exitDy=0;" edge="1" parent="1" target="s12bMk3e2mgrODgUQQMB-5">
          <mxGeometry width="50" height="50" relative="1" as="geometry">
            <mxPoint x="490" y="220" as="sourcePoint" />
            <mxPoint x="380" y="210" as="targetPoint" />
          </mxGeometry>
        </mxCell>
        <mxCell id="s12bMk3e2mgrODgUQQMB-24" value="&amp;lt;&amp;lt;includes&amp;gt;&amp;gt;" style="edgeLabel;html=1;align=center;verticalAlign=middle;resizable=0;points=[];" vertex="1" connectable="0" parent="s12bMk3e2mgrODgUQQMB-23">
          <mxGeometry x="-0.2803" y="2" relative="1" as="geometry">
            <mxPoint x="-20" y="-8" as="offset" />
          </mxGeometry>
        </mxCell>
        <mxCell id="s12bMk3e2mgrODgUQQMB-25" value="" style="endArrow=none;dashed=1;html=1;rounded=0;startArrow=classic;startFill=1;entryX=1;entryY=0.5;entryDx=0;entryDy=0;exitX=0;exitY=0.5;exitDx=0;exitDy=0;" edge="1" parent="1" target="s12bMk3e2mgrODgUQQMB-6">
          <mxGeometry width="50" height="50" relative="1" as="geometry">
            <mxPoint x="500" y="230" as="sourcePoint" />
            <mxPoint x="390" y="220" as="targetPoint" />
          </mxGeometry>
        </mxCell>
        <mxCell id="s12bMk3e2mgrODgUQQMB-26" value="&amp;lt;&amp;lt;includes&amp;gt;&amp;gt;" style="edgeLabel;html=1;align=center;verticalAlign=middle;resizable=0;points=[];" vertex="1" connectable="0" parent="s12bMk3e2mgrODgUQQMB-25">
          <mxGeometry x="-0.2803" y="2" relative="1" as="geometry">
            <mxPoint x="-20" y="-8" as="offset" />
          </mxGeometry>
        </mxCell>
        <mxCell id="s12bMk3e2mgrODgUQQMB-30" value="" style="endArrow=none;html=1;rounded=0;entryX=0;entryY=0.5;entryDx=0;entryDy=0;exitX=1;exitY=0.3333333333333333;exitDx=0;exitDy=0;exitPerimeter=0;" edge="1" parent="1" source="s12bMk3e2mgrODgUQQMB-2" target="s12bMk3e2mgrODgUQQMB-13">
          <mxGeometry width="50" height="50" relative="1" as="geometry">
            <mxPoint x="90" y="690" as="sourcePoint" />
            <mxPoint x="140" y="640" as="targetPoint" />
          </mxGeometry>
        </mxCell>
        <mxCell id="s12bMk3e2mgrODgUQQMB-31" value="" style="endArrow=none;html=1;rounded=0;entryX=0;entryY=0.5;entryDx=0;entryDy=0;exitX=1;exitY=0.3333333333333333;exitDx=0;exitDy=0;exitPerimeter=0;" edge="1" parent="1" source="s12bMk3e2mgrODgUQQMB-2" target="s12bMk3e2mgrODgUQQMB-11">
          <mxGeometry width="50" height="50" relative="1" as="geometry">
            <mxPoint x="60" y="720" as="sourcePoint" />
            <mxPoint x="110" y="670" as="targetPoint" />
          </mxGeometry>
        </mxCell>
        <mxCell id="s12bMk3e2mgrODgUQQMB-32" value="" style="endArrow=none;html=1;rounded=0;exitX=1;exitY=0.3333333333333333;exitDx=0;exitDy=0;exitPerimeter=0;entryX=0;entryY=0.5;entryDx=0;entryDy=0;" edge="1" parent="1" source="s12bMk3e2mgrODgUQQMB-1" target="s12bMk3e2mgrODgUQQMB-15">
          <mxGeometry width="50" height="50" relative="1" as="geometry">
            <mxPoint x="90" y="440" as="sourcePoint" />
            <mxPoint x="140" y="390" as="targetPoint" />
          </mxGeometry>
        </mxCell>
        <mxCell id="s12bMk3e2mgrODgUQQMB-36" value="" style="endArrow=none;dashed=1;html=1;rounded=0;startArrow=classic;startFill=1;entryX=1;entryY=0.5;entryDx=0;entryDy=0;exitX=0;exitY=0.5;exitDx=0;exitDy=0;" edge="1" parent="1" source="s12bMk3e2mgrODgUQQMB-35" target="s12bMk3e2mgrODgUQQMB-13">
          <mxGeometry width="50" height="50" relative="1" as="geometry">
            <mxPoint x="490" y="220" as="sourcePoint" />
            <mxPoint x="380" y="210" as="targetPoint" />
          </mxGeometry>
        </mxCell>
        <mxCell id="s12bMk3e2mgrODgUQQMB-37" value="&amp;lt;&amp;lt;includes&amp;gt;&amp;gt;" style="edgeLabel;html=1;align=center;verticalAlign=middle;resizable=0;points=[];" vertex="1" connectable="0" parent="s12bMk3e2mgrODgUQQMB-36">
          <mxGeometry x="-0.2803" y="2" relative="1" as="geometry">
            <mxPoint x="-17" y="-12" as="offset" />
          </mxGeometry>
        </mxCell>
        <mxCell id="s12bMk3e2mgrODgUQQMB-39" value="Outlook service" style="shape=umlActor;verticalLabelPosition=bottom;verticalAlign=top;html=1;outlineConnect=0;" vertex="1" parent="1">
          <mxGeometry x="740" y="120" width="30" height="60" as="geometry" />
        </mxCell>
        <mxCell id="s12bMk3e2mgrODgUQQMB-40" value="" style="endArrow=none;html=1;rounded=0;exitX=1;exitY=0.5;exitDx=0;exitDy=0;entryX=0;entryY=0.3333333333333333;entryDx=0;entryDy=0;entryPerimeter=0;" edge="1" parent="1" source="s12bMk3e2mgrODgUQQMB-8" target="s12bMk3e2mgrODgUQQMB-39">
          <mxGeometry width="50" height="50" relative="1" as="geometry">
            <mxPoint x="610" y="190" as="sourcePoint" />
            <mxPoint x="660" y="140" as="targetPoint" />
          </mxGeometry>
        </mxCell>
      </root>
    </mxGraphModel>
  </diagram>
</mxfile>
